<?xml version="1.0" encoding="UTF-8" standalone="no"?><!DOCTYPE svg PUBLIC "-//W3C//DTD SVG 1.1//EN" "http://www.w3.org/Graphics/SVG/1.1/DTD/svg11.dtd"><svg width="100%" height="100%" viewBox="0 0 373 203" version="1.1" xmlns="http://www.w3.org/2000/svg" xmlns:xlink="http://www.w3.org/1999/xlink" xml:space="preserve" xmlns:serif="http://www.serif.com/" style="fill-rule:evenodd;clip-rule:evenodd;stroke-linejoin:round;stroke-miterlimit:2;"><rect id="Artboard2" x="0" y="0" width="372.925" height="202.706" style="fill:none;"/><clipPath id="_clip1"><rect x="0" y="0" width="372.925" height="202.706"/></clipPath><g clip-path="url(#_clip1)"><g id="Logo"><rect x="257.475" y="0.132" width="115.67" height="176.643" style="fill:#ffdc00;"/><rect x="0.22" y="26.063" width="347.01" height="176.643" style="fill:#004c9b;"/><path d="M52.45,53.157l-10.313,0l-0.516,0.516l0,28.876l-0.516,0.516l-6.187,0l-0.516,-0.516l0,-28.876l-0.516,-0.516l-10.313,0l-0.515,-0.516l0,-5.156l0.515,-0.516l28.877,0l0.516,0.516l0,5.156l-0.516,0.516Z" style="fill:#fff;fill-rule:nonzero;"/><path d="M61.36,62.954c-3.61,0 -5.672,2.578 -5.672,7.219c0,4.64 2.062,7.219 5.672,7.219c3.609,0 5.672,-2.579 5.672,-7.219c0,-4.641 -2.063,-7.219 -5.672,-7.219m0,20.626c-7.735,0 -12.891,-5.156 -12.891,-13.407c0,-8.251 5.156,-13.407 12.891,-13.407c7.735,0 12.891,5.156 12.891,13.407c0,8.251 -5.156,13.407 -12.891,13.407" style="fill:#fff;fill-rule:nonzero;"/><path d="M95.227,63.47l-3.609,0c-4.126,0 -5.673,2.063 -5.673,6.703l0,12.376l-0.515,0.516l-6.188,0l-0.516,-0.516l0,-24.752l0.516,-0.515l5.672,0l0.516,0.515l0.515,1.548l0.516,0c0,0 1.031,-2.063 5.672,-2.063l3.094,0l0.516,0.515l0,5.157l-0.516,0.516Z" style="fill:#fff;fill-rule:nonzero;"/><path d="M109.499,62.954c-3.61,0 -5.672,2.578 -5.672,7.219c0,4.64 2.062,7.219 5.672,7.219c3.609,0 5.672,-2.579 5.672,-7.219c0,-4.641 -2.063,-7.219 -5.672,-7.219m0,20.626c-7.735,0 -12.891,-5.156 -12.891,-13.407c0,-8.251 5.156,-13.407 12.891,-13.407c7.735,0 12.891,5.156 12.891,13.407c0,8.251 -5.156,13.407 -12.891,13.407" style="fill:#fff;fill-rule:nonzero;"/><path d="M150.446,83.064l-6.188,0l-0.516,-0.516l0,-14.954c0,-2.578 -1.031,-4.64 -4.125,-4.64c-3.609,0 -5.672,2.062 -5.672,6.703l0,12.891l-0.515,0.516l-6.188,0l-0.516,-0.516l0,-24.751l0.516,-0.515l5.672,0l0.516,0.515l0.515,1.547l0.516,0c1.031,-1.031 3.094,-2.578 6.703,-2.578c6.188,0 9.798,4.125 9.798,10.313l0,15.469l-0.516,0.516Z" style="fill:#fff;fill-rule:nonzero;"/><path d="M165.75,75.33c0,1.031 0.516,1.546 1.547,1.546l4.641,0l0.515,0.517l0,5.156l-0.515,0.515l-4.641,0c-4.641,0 -8.766,-2.062 -8.766,-7.734l0,-11.345l-0.516,-0.515l-3.61,0l-0.515,-0.516l0,-5.157l0.515,-0.515l3.61,0l0.516,-0.516l0,-4.641l0.515,-0.515l6.188,0l0.516,0.515l0,4.641l0.516,0.516l5.672,0l0.515,0.515l0,5.157l-0.515,0.516l-5.672,0l-0.516,0.515l0,11.345Z" style="fill:#fff;fill-rule:nonzero;"/><path d="M187.757,62.954c-3.609,0 -5.672,2.578 -5.672,7.219c0,4.64 2.063,7.219 5.672,7.219c3.609,0 5.672,-2.579 5.672,-7.219c0,-4.641 -2.063,-7.219 -5.672,-7.219m0,20.626c-7.735,0 -12.891,-5.156 -12.891,-13.407c0,-8.251 5.156,-13.407 12.891,-13.407c7.734,0 12.891,5.156 12.891,13.407c0,8.251 -5.157,13.407 -12.891,13.407" style="fill:#fff;fill-rule:nonzero;"/><path d="M55.028,162.831c0,9.282 -5.157,14.438 -14.438,14.438c-9.282,0 -14.439,-5.156 -14.439,-14.438l0,-21.657l0.516,-0.516l6.188,0l0.516,0.516l0,21.657c0,5.156 2.062,8.251 7.219,8.251c5.156,0 7.219,-3.095 7.219,-8.251l0,-21.657l0.515,-0.516l6.188,0l0.516,0.516l0,21.657Z" style="fill:#fff;fill-rule:nonzero;"/><path d="M83.996,176.754l-6.188,0l-0.516,-0.516l0,-14.954c0,-2.578 -1.031,-4.64 -4.125,-4.64c-3.609,0 -5.672,2.062 -5.672,6.703l0,12.891l-0.515,0.516l-6.188,0l-0.516,-0.516l0,-24.751l0.516,-0.516l5.672,0l0.516,0.516l0.515,1.547l0.516,0c1.031,-1.032 3.094,-2.578 6.703,-2.578c6.188,0 9.798,4.125 9.798,10.313l0,15.469l-0.516,0.516Z" style="fill:#fff;fill-rule:nonzero;"/><path d="M96.721,176.754l-6.188,0l-0.516,-0.516l0,-24.751l0.516,-0.516l6.188,0l0.516,0.516l0,24.751l-0.516,0.516Zm0,-29.908l-6.188,0l-0.516,-0.515l0,-5.157l0.516,-0.515l6.188,0l0.516,0.515l0,5.157l-0.516,0.515Z" style="fill:#fff;fill-rule:nonzero;"/><path d="M116.923,176.238l-0.516,0.516l-5.672,0l-0.516,-0.516l-8.766,-19.595l0,-5.157l0.516,-0.515l4.641,0l0.516,0.515l6.188,15.986l0.515,0l6.188,-15.986l0.516,-0.515l4.64,0l0.516,0.515l0,5.157l-8.766,19.595Z" style="fill:#fff;fill-rule:nonzero;"/><path d="M145.376,160.769c0,-0.516 -0.516,-4.125 -4.641,-4.125c-4.125,0 -4.641,3.609 -4.641,4.125l0.516,0.516l8.25,0l0.516,-0.516Zm7.735,5.156l-0.516,0.516l-15.985,0l-0.516,0.516c0,1.031 1.032,4.125 5.157,4.125c1.547,0 3.094,-0.515 3.609,-1.547l0.516,-0.515l6.188,0l0.516,0.515c-0.516,3.094 -3.095,7.735 -10.829,7.735c-8.766,0 -12.891,-6.188 -12.891,-13.407c0,-7.219 4.125,-13.407 12.375,-13.407c8.25,0 12.376,6.188 12.376,13.407l0,2.062Z" style="fill:#fff;fill-rule:nonzero;"/><path d="M173.828,157.159l-3.609,0c-4.125,0 -5.672,2.063 -5.672,6.703l0,12.376l-0.516,0.516l-6.188,0l-0.516,-0.516l0,-24.752l0.516,-0.515l5.672,0l0.516,0.515l0.516,1.548l0.515,0c0,0 1.032,-2.063 5.672,-2.063l3.094,0l0.516,0.515l0,5.157l-0.516,0.516Z" style="fill:#fff;fill-rule:nonzero;"/><path d="M188.101,177.27c-7.219,0 -11.345,-3.609 -11.345,-8.766l0.516,-0.516l6.188,0l0.516,0.516c0,2.063 1.547,2.578 4.125,2.578c2.578,0 4.125,-0.515 4.125,-2.062c0,-2.063 -2.062,-2.063 -5.156,-2.579c-3.094,-0.516 -9.798,-2.062 -9.798,-8.25c0,-4.125 3.094,-7.735 10.829,-7.735c6.188,0 10.828,2.579 10.828,7.735l-0.515,0.516l-6.188,0l-0.516,-0.516c0,-1.031 -1.031,-1.547 -3.609,-1.547c-2.578,0 -3.609,0.516 -3.609,2.063c0,2.062 3.093,2.062 6.187,2.578c3.094,0.515 8.766,1.547 8.766,7.735c0,4.125 -3.094,8.25 -11.344,8.25" style="fill:#fff;fill-rule:nonzero;"/><path d="M210.366,176.754l-6.188,0l-0.516,-0.516l0,-24.751l0.516,-0.516l6.188,0l0.516,0.516l0,24.751l-0.516,0.516Zm0,-29.908l-6.188,0l-0.516,-0.515l0,-5.157l0.516,-0.515l6.188,0l0.516,0.515l0,5.157l-0.516,0.515Z" style="fill:#fff;fill-rule:nonzero;"/><path d="M226.701,169.02c0,1.031 0.516,1.547 1.547,1.547l4.641,0l0.515,0.516l0,5.156l-0.515,0.515l-4.641,0c-4.641,0 -8.766,-2.062 -8.766,-7.734l0,-11.345l-0.516,-0.515l-3.61,0l-0.515,-0.516l0,-5.157l0.515,-0.515l3.61,0l0.516,-0.516l0,-4.641l0.515,-0.515l6.188,0l0.516,0.515l0,4.641l0.516,0.516l5.672,0l0.515,0.515l0,5.157l-0.515,0.516l-5.672,0l-0.516,0.515l0,11.345Z" style="fill:#fff;fill-rule:nonzero;"/><path d="M252.832,177.27c-2.063,5.156 -4.125,8.251 -11.345,8.251l-2.578,0l-0.515,-0.517l0,-5.156l0.515,-0.515l2.578,0c2.579,0 3.095,-0.516 3.611,-2.063l0,-0.516l-8.251,-20.11l0,-5.157l0.515,-0.515l4.641,0l0.516,0.515l6.188,17.533l0.516,0l6.187,-17.533l0.516,-0.515l4.641,0l0.516,0.515l0,5.157l-8.251,20.626Z" style="fill:#fff;fill-rule:nonzero;"/><path d="M61.732,129.909l-6.188,0l-0.516,-0.516l0,-19.653l-0.515,0l-6.936,19.653l-0.516,0.516l-5.672,0l-0.516,-0.516l-6.986,-19.653l-0.516,0l0,19.653l-0.516,0.516l-6.187,0l-0.516,-0.516l0,-35.064l0.516,-0.515l7.735,0l0.515,0.515l9.079,25.267l0.516,0l8.969,-25.267l0.515,-0.515l7.735,0l0.516,0.515l0,35.064l-0.516,0.516Z" style="fill:#fff;fill-rule:nonzero;"/><path d="M83.671,113.924c0,-0.516 -0.516,-4.125 -4.641,-4.125c-4.125,0 -4.641,3.609 -4.641,4.125l0.516,0.516l8.25,0l0.516,-0.516Zm7.735,5.156l-0.516,0.516l-15.985,0l-0.516,0.516c0,1.031 1.032,4.125 5.157,4.125c1.547,0 3.094,-0.515 3.609,-1.547l0.516,-0.515l6.188,0l0.516,0.515c-0.516,3.094 -3.094,7.735 -10.829,7.735c-8.766,0 -12.891,-6.188 -12.891,-13.407c0,-7.219 4.125,-13.407 12.375,-13.407c8.251,0 12.376,6.188 12.376,13.407l0,2.062Z" style="fill:#fff;fill-rule:nonzero;"/><path d="M105.163,122.175c0,1.031 0.516,1.547 1.547,1.547l4.641,0l0.515,0.516l0,5.156l-0.515,0.515l-4.641,0c-4.641,0 -8.766,-2.062 -8.766,-7.734l0,-11.345l-0.516,-0.515l-3.61,0l-0.515,-0.516l0,-5.157l0.515,-0.515l3.61,0l0.516,-0.516l0,-4.641l0.515,-0.515l6.188,0l0.516,0.515l0,4.641l0.516,0.516l5.672,0l0.515,0.515l0,5.157l-0.515,0.516l-5.672,0l-0.516,0.515l0,11.345Z" style="fill:#fff;fill-rule:nonzero;"/><path d="M133.357,110.315l-3.609,0c-4.126,0 -5.673,2.063 -5.673,6.703l0,12.376l-0.515,0.516l-6.188,0l-0.516,-0.516l0,-24.752l0.516,-0.515l5.672,0l0.516,0.515l0.515,1.548l0.516,0c0,0 1.031,-2.063 5.672,-2.063l3.094,0l0.516,0.515l0,5.157l-0.516,0.516Z" style="fill:#fff;fill-rule:nonzero;"/><path d="M147.63,109.799c-3.609,0 -5.672,2.578 -5.672,7.219c0,4.641 2.063,7.219 5.672,7.219c3.609,0 5.672,-2.578 5.672,-7.219c0,-4.641 -2.063,-7.219 -5.672,-7.219m0,20.626c-7.735,0 -12.891,-5.156 -12.891,-13.407c0,-8.25 5.156,-13.407 12.891,-13.407c7.734,0 12.891,5.157 12.891,13.407c0,8.251 -5.157,13.407 -12.891,13.407" style="fill:#fff;fill-rule:nonzero;"/><path d="M177.749,109.799c-4.125,0 -5.672,3.094 -5.672,7.219c0,4.125 1.547,7.219 5.672,7.219c4.125,0 5.672,-3.094 5.672,-7.219c0,-4.125 -1.547,-7.219 -5.672,-7.219m1.547,20.626c-4.641,0 -6.703,-2.578 -6.703,-2.578l-0.516,0l0,12.296l-0.516,0.516l-6.188,0l-0.515,-0.516l0,-35.501l0.515,-0.516l5.673,0l0.515,0.516l0.516,1.548l0.516,0c0,0 2.062,-2.579 6.703,-2.579c6.187,0 11.344,5.157 11.344,13.407c0,8.251 -5.157,13.407 -11.344,13.407" style="fill:#fff;fill-rule:nonzero;"/><path d="M206.46,109.799c-3.609,0 -5.672,2.578 -5.672,7.219c0,4.641 2.063,7.219 5.672,7.219c3.609,0 5.672,-2.578 5.672,-7.219c0,-4.641 -2.063,-7.219 -5.672,-7.219m0,20.626c-7.735,0 -12.891,-5.156 -12.891,-13.407c0,-8.25 5.156,-13.407 12.891,-13.407c7.734,0 12.891,5.157 12.891,13.407c0,8.251 -5.157,13.407 -12.891,13.407" style="fill:#fff;fill-rule:nonzero;"/><path d="M230.391,129.909l-6.188,0l-0.516,-0.516l0,-35.064l0.516,-0.515l6.188,0l0.516,0.515l0,35.064l-0.516,0.516Z" style="fill:#fff;fill-rule:nonzero;"/><path d="M243.633,129.909l-6.188,0l-0.516,-0.516l0,-24.751l0.516,-0.516l6.188,0l0.516,0.516l0,24.751l-0.516,0.516Zm0,-29.908l-6.188,0l-0.516,-0.515l0,-5.157l0.516,-0.515l6.188,0l0.516,0.515l0,5.157l-0.516,0.515Z" style="fill:#fff;fill-rule:nonzero;"/><path d="M259.967,122.175c0,1.031 0.516,1.547 1.547,1.547l4.641,0l0.515,0.516l0,5.156l-0.515,0.515l-4.641,0c-4.641,0 -8.766,-2.062 -8.766,-7.734l0,-11.345l-0.516,-0.515l-3.61,0l-0.515,-0.516l0,-5.157l0.515,-0.515l3.61,0l0.516,-0.516l0,-4.641l0.515,-0.515l6.188,0l0.516,0.515l0,4.641l0.516,0.516l5.672,0l0.515,0.515l0,5.157l-0.515,0.516l-5.672,0l-0.516,0.515l0,11.345Z" style="fill:#fff;fill-rule:nonzero;"/><path d="M284.552,119.08c0,0 -1.031,-0.516 -3.094,-0.516c-3.094,0 -4.64,1.032 -4.64,3.095c0,1.547 1.031,2.578 3.609,2.578c2.578,0 4.641,-1.547 4.641,-3.61l0,-1.031l-0.516,-0.516Zm7.219,10.829l-5.672,0l-0.516,-0.516l-0.515,-1.031l-0.516,0c0,0 -2.063,2.063 -5.672,2.063c-5.673,0 -9.282,-3.094 -9.282,-8.251c0,-7.735 7.22,-8.766 11.345,-8.766c2.062,0 3.609,0.516 3.609,0.516l0.516,-0.516l0,-0.516c0,-2.578 -0.516,-3.093 -3.61,-3.093c-1.547,0 -3.094,0 -3.609,1.547l-0.516,0.515l-6.188,0l-0.516,-0.515c0,-3.094 2.578,-7.736 10.829,-7.736c8.25,0 10.828,4.126 10.828,11.861l0,13.922l-0.515,0.516Z" style="fill:#fff;fill-rule:nonzero;"/><path d="M321.307,129.909l-6.188,0l-0.516,-0.516l0,-14.954c0,-2.578 -1.031,-4.64 -4.125,-4.64c-3.609,0 -5.672,2.062 -5.672,6.703l0,12.891l-0.515,0.516l-6.189,0l-0.515,-0.516l0,-24.751l0.515,-0.516l5.673,0l0.516,0.516l0.515,1.547l0.516,0c1.031,-1.032 3.094,-2.578 6.703,-2.578c6.188,0 9.798,4.125 9.798,10.313l0,15.469l-0.516,0.516Z" style="fill:#fff;fill-rule:nonzero;"/></g></g></svg>